<svg width="713" height="100" viewBox="0 0 713 100" fill="none" xmlns="http://www.w3.org/2000/svg">
<path d="M0 19.6844L56.2735 19.6093L51.6561 28.7754H14.876L40.2705 79.8648L80.1653 0L120.21 79.7896L64.3877 79.8648L68.9707 70.6987H105.485L80.1653 20.2855L40.2705 100L0 19.6844Z" fill="white"/>
<path fill-rule="evenodd" clip-rule="evenodd" d="M159.258 29.5131V45.3603H190.667V54.0691H159.258V70.2019H193.094V79.1963H150.264V20.6615H192.095V29.5131H159.258Z" fill="white"/>
<path fill-rule="evenodd" clip-rule="evenodd" d="M222.361 70.3447H252.342V79.1963H213.223V20.6615H222.361V70.3447Z" fill="white"/>
<path fill-rule="evenodd" clip-rule="evenodd" d="M280.182 29.5131V45.3603H311.591V54.0691H280.182V70.2019H314.018V79.1963H271.188V20.6615H313.019V29.5131H280.182Z" fill="white"/>
<path fill-rule="evenodd" clip-rule="evenodd" d="M357.562 65.4906L375.694 20.6615H385.544L361.417 79.339H353.707L329.722 20.6615H339.431L357.562 65.4906Z" fill="white"/>
<path fill-rule="evenodd" clip-rule="evenodd" d="M425.663 33.3678C419.095 48.3584 412.528 63.4918 405.818 78.4824L405.532 79.1963H395.681L421.951 20.6615H429.66L455.929 79.1963H446.078L445.793 78.4824C438.797 63.4918 432.23 48.3584 425.663 33.3678Z" fill="white"/>
<path fill-rule="evenodd" clip-rule="evenodd" d="M478.629 29.5133H459.355V20.8045H507.04V29.5133H487.766V79.1965H478.629V29.5133Z" fill="white"/>
<path fill-rule="evenodd" clip-rule="evenodd" d="M553.011 19.9474C570.714 19.9474 582.564 32.511 582.421 50.0714C582.279 67.3463 570.572 80.0526 553.011 80.0526C535.451 80.0526 523.601 67.2036 523.601 49.7859C523.601 32.3682 535.308 19.9474 553.011 19.9474ZM553.011 28.6563C540.305 28.6563 532.453 37.3651 532.595 49.9287C532.738 62.0639 540.448 71.3438 553.011 71.3438C565.575 71.3438 573.57 62.2067 573.57 50.0714C573.57 37.5079 565.718 28.6563 553.011 28.6563Z" fill="white"/>
<path fill-rule="evenodd" clip-rule="evenodd" d="M634.818 58.2094L654.234 79.1963H642.099L623.682 58.9232H612.689V79.1963H603.552V20.6615H605.979C613.831 20.6615 621.683 20.6615 629.535 20.6615C640.814 20.6615 649.523 28.371 649.523 39.7924C649.523 49.215 643.955 56.2107 634.818 58.2094ZM612.546 29.5131V50.0716H628.964C635.817 50.0716 639.958 46.9308 639.958 39.7924C639.958 33.5106 635.532 29.5131 629.393 29.5131H612.546V29.5131Z" fill="white"/>
<path fill-rule="evenodd" clip-rule="evenodd" d="M684.643 53.07C690.211 52.0706 699.634 52.0706 700.776 59.3518C701.49 63.6348 698.349 67.7751 694.351 69.06C687.784 71.2015 681.217 66.3474 677.076 61.6361L670.081 69.2028C677.79 76.3411 688.498 81.6235 699.062 78.0544C706.344 75.6273 712.34 68.9172 712.625 61.065C712.911 52.3562 706.201 46.7882 698.777 44.0756L697.492 43.6473L712.054 30.2272V20.8045H673.222V31.0838H696.921L682.216 45.7889C682.501 48.5014 683.358 50.7857 684.643 53.07Z" fill="white"/>
</svg>
